<svg height="512pt" viewBox="-22 0 512 512.00102" width="512pt" xmlns="http://www.w3.org/2000/svg"><path d="m0 17.652344c0-9.75 7.902344-17.652344 17.652344-17.652344s17.652344 7.902344 17.652344 17.652344-7.902344 17.652344-17.652344 17.652344-17.652344-7.902344-17.652344-17.652344zm26.480469 476.628906h-17.652344v-194.183594h17.652344zm8.824219-211.835938h-35.304688v-17.652343h35.304688zm0-35.304687h-35.304688v-23.054687l35.304688 11.765624zm0-29.894531-35.304688-11.765625v-57.902344l35.304688-11.765625zm0-100.039063-35.304688 11.765625v-23.054687h35.304688zm0-28.941406h-35.304688v-8.828125h35.304688zm17.65625 17.652344h16.222656l-16.222656 5.410156zm0 141.222656v-5.410156l16.222656 5.410156zm61.78125-3.417969-61.78125-20.589844v-93.207031l61.78125-20.59375zm88.265624 9.59375-70.609374 2.347656v-158.273437l70.609374 2.347656zm88.265626-12.753906-70.613282 10.992188v-150.050782l70.613282 10.988282zm88.261718-13.722656-70.609375 10.988281v-122.589844l70.609375 10.980469zm88.265625-13.726563-70.613281 10.980469v-95.121094l70.613281 10.980469zm0 0"/><path d="m255.964844 344.230469h-44.128906c-4.875 0-8.828126 3.953125-8.828126 8.828125 0 4.871094 3.953126 8.824218 8.828126 8.824218h44.128906c19.5-.003906 35.304687-15.8125 35.300781-35.3125-.003906-19.496093-15.8125-35.300781-35.3125-35.296874-14.960937 0-28.292969 9.433593-33.28125 23.539062-1.621094 4.597656.789063 9.636719 5.386719 11.261719 4.59375 1.625 9.636718-.789063 11.261718-5.382813 3.25-9.191406 13.335938-14.007812 22.527344-10.757812 9.191406 3.253906 14.007813 13.339844 10.757813 22.53125-2.496094 7.050781-9.160157 11.761718-16.640625 11.765625zm0 0"/><path d="m273.621094 423.667969c0 4.875 3.949218 8.828125 8.824218 8.828125h91.246094.179688 1.25c17.0625.003906 30.890625 13.835937 30.886718 30.898437-.003906 17.0625-13.835937 30.890625-30.898437 30.886719-15.726563-.003906-28.941406-11.824219-30.695313-27.453125-.121093-1.140625-.183593-2.289063-.183593-3.441406 0-4.875-3.953125-8.824219-8.828125-8.824219s-8.824219 3.949219-8.824219 8.824219c-.003906 1.796875.09375 3.589843.289063 5.375 2.933593 26.652343 26.917968 45.875 53.566406 42.945312 26.648437-2.933593 45.875-26.917969 42.941406-53.566406-2.65625-24.140625-22.746094-42.605469-47.027344-43.21875-.105468 0-.203125-.0625-.308594-.0625h-93.59375c-4.867187 0-8.816406 3.941406-8.824218 8.808594zm0 0"/><path d="m414.84375 397.1875c4.871094 0 8.824219-3.949219 8.824219-8.824219s-3.953125-8.828125-8.824219-8.828125h-97.09375c-4.875 0-8.824219 3.953125-8.824219 8.828125s3.949219 8.824219 8.824219 8.824219zm0 0"/><path d="m291.273438 388.363281c0-4.875-3.953126-8.828125-8.828126-8.828125h-26.480468c-4.875 0-8.824219 3.953125-8.824219 8.828125s3.949219 8.824219 8.824219 8.824219h26.480468c4.875 0 8.828126-3.949219 8.828126-8.824219zm0 0"/><path d="m132.398438 397.1875h88.261718c4.875 0 8.828125-3.949219 8.828125-8.824219s-3.953125-8.828125-8.828125-8.828125h-88.261718c-4.875 0-8.828126 3.953125-8.828126 8.828125s3.953126 8.824219 8.828126 8.824219zm0 0"/><path d="m132.398438 432.496094h35.304687c4.875 0 8.824219-3.953125 8.824219-8.828125s-3.949219-8.828125-8.824219-8.828125h-35.304687c-4.875 0-8.828126 3.953125-8.828126 8.828125s3.953126 8.828125 8.828126 8.828125zm0 0"/><path d="m132.398438 361.882812h44.128906c4.875 0 8.828125-3.953124 8.828125-8.824218 0-4.875-3.953125-8.828125-8.828125-8.828125h-44.128906c-4.875 0-8.828126 3.953125-8.828126 8.828125 0 4.871094 3.953126 8.824218 8.828126 8.824218zm0 0"/><path d="m203.007812 414.839844c-4.875 0-8.828124 3.953125-8.828124 8.828125s3.953124 8.828125 8.828124 8.828125h35.304688c4.875 0 8.828125-3.953125 8.828125-8.828125s-3.953125-8.828125-8.828125-8.828125zm0 0"/></svg>