<svg height="511pt" viewBox="0 0 511 511.9998" width="511pt" xmlns="http://www.w3.org/2000/svg"><path d="m329.066406 161.984375c-12.207031-40.324219-54.792968-63.117187-95.117187-50.910156-6.980469 2.113281-13.621094 5.21875-19.71875 9.214843-8.167969-43.890624-50.375-72.851562-94.265625-64.683593-38.164063 7.101562-65.890625 40.328125-66.046875 79.144531v27.664062c-34.328125 5.230469-57.921875 37.296876-52.691407 71.625 4.648438 30.535157 30.789063 53.167969 61.671876 53.40625h260.480468c34.726563-.171874 62.738282-28.460937 62.566406-63.183593-.160156-32.28125-24.742187-59.199219-56.878906-62.277344zm0 0" fill="#8aced8"/><path d="m493.816406 51.628906c.054688-.734375.222656-1.453125.222656-2.207031.082032-17.292969-13.871093-31.375-31.164062-31.457031-6.851562-.03125-13.519531 2.183594-18.992188 6.304687-11.328124-21.980469-38.332031-30.613281-60.3125-19.285156-14.945312 7.703125-24.316406 23.132813-24.261718 39.945313 0 .816406.199218 1.589843.242187 2.398437-21.050781 7.257813-32.238281 30.207031-24.980469 51.257813 5.617188 16.296874 20.972657 27.222656 38.210938 27.183593h98.804688c22.324218-.03125 40.394531-18.15625 40.359374-40.476562-.015624-13.550781-6.824218-26.191407-18.128906-33.664063zm0 0" fill="#69b0bb"/></svg>