<svg fill="#FFF" height="512pt" viewBox="-30 0 512 512.01826" width="512pt" xmlns="http://www.w3.org/2000/svg"><path d="m239.769531 163.117188c-51.296875-7.46875-98.9375 28.0625-106.402343 79.363281-7.46875 51.296875 28.0625 98.933593 79.363281 106.402343 51.277343 7.464844 98.90625-28.042968 106.394531-79.316406 7.445312-51.300781-28.066406-98.9375-79.355469-106.449218zm-77.554687 118.230468c-4.5625 1.183594-9.21875-1.554687-10.402344-6.117187-10.023438-38.832031 11.496094-78.84375 49.421875-91.882813 4.441406-1.574218 9.320313.75 10.894531 5.195313 1.574219 4.441406-.753906 9.316406-5.195312 10.890625-.046875.015625-.09375.035156-.144532.050781-29.5 10.136719-46.246093 41.253906-38.457031 71.460937 1.183594 4.5625-1.554687 9.21875-6.117187 10.402344zm52.167968 42.425782c-1.089843 3.59375-4.40625 6.050781-8.164062 6.050781-.839844 0-1.679688-.125-2.484375-.375-12.59375-3.84375-23.988281-10.867188-33.082031-20.394531-3.253906-3.410157-3.125-8.8125.28125-12.066407 3.410156-3.253906 8.8125-3.125 12.066406.28125 7.058594 7.421875 15.910156 12.894531 25.703125 15.898438 4.488281 1.371093 7.027344 6.109375 5.679687 10.605469zm0 0"/><path d="m332.882812 184.796875 110.960938-63.804687 8.503906 14.792968-110.957031 63.804688zm0 0"/><path d="m217.867188 127.992188.253906-127.992188 17.066406.0351562-.253906 127.9921878zm0 0"/><path d="m.433594 134.988281 8.558594-14.765625 110.738281 64.191406-8.558594 14.761719zm0 0"/><path d="m.0078125 376.207031 110.9453125-63.816406 8.511719 14.792969-110.945313 63.816406zm0 0"/><path d="m217.191406 511.984375.253906-127.992187 17.066407.03125-.253907 127.996093zm0 0"/><path d="m332.636719 327.550781 8.558593-14.765625 110.742188 64.1875-8.558594 14.765625zm0 0"/><path d="m282.757812 140.867188 38.390626-66.515626 14.78125 8.53125-38.390626 66.515626zm0 0"/><path d="m116.359375 82.917969 14.769531-8.53125 38.414063 66.5-14.769531 8.53125zm0 0"/><path d="m21.386719 247.488281h76.796875v17.066407h-76.796875zm0 0"/><path d="m116.425781 429.085938 38.390625-66.511719 14.78125 8.53125-38.390625 66.511719zm0 0"/><path d="m282.808594 371.070312 14.769531-8.53125 38.414063 66.496094-14.769532 8.53125zm0 0"/><path d="m354.171875 247.4375h76.796875v17.066406h-76.796875zm0 0"/></svg>