<svg fill="#FFF" height="512pt" viewBox="0 -4 512.00011 512" width="512pt" xmlns="http://www.w3.org/2000/svg"><path d="m185.816406 51.460938c-45.824218 130.378906 22.71875 273.222656 153.097656 319.050781 26.820313 9.425781 55.050782 14.214843 83.480469 14.15625 2.480469 0 4.964844-.128907 7.445313-.207031-59.898438 111.125-198.546875 152.652343-309.671875 92.753906-111.128907-59.902344-152.65625-198.546875-92.753907-309.675782 32.644532-60.554687 90.824219-103.191406 158.402344-116.078124zm0 0"/><path d="m490.339844 73.445312c-22.023438 7.347657-39.011719 25.085938-45.394532 47.414063l-6.445312 22.570313-6.457031-22.582032c-6.382813-22.320312-23.363281-40.058594-45.386719-47.402344l-16.214844-5.398437 17.683594-5.890625c20.972656-7.054688 37.433594-23.519531 44.480469-44.492188l5.894531-17.664062 5.890625 17.671875c7.050781 20.96875 23.511719 37.429687 44.480469 44.484375l17.683594 5.890625zm0 0"/><path d="m468.445312 254.109375h21.777344v21.777344h-21.777344zm0 0"/><path d="m490.222656 156.105469h21.777344v21.777343h-21.777344zm0 0"/><path d="m424.886719 199.664062h21.777343v21.777344h-21.777343zm0 0"/></svg>