<svg fill="#FFF" height="511pt" viewBox="-4 1 511 511.9995" width="511pt" xmlns="http://www.w3.org/2000/svg"><path d="m47.519531 165.207031c4.5-.648437 7.835938-4.503906 7.835938-9.050781v-28.148438c.183593-40.394531 33.078125-72.992187 73.472656-72.808593 35.09375.160156 65.125 25.21875 71.566406 59.714843.894531 4.96875 5.648438 8.273438 10.617188 7.382813 1.214843-.21875 2.371093-.679687 3.398437-1.355469 31.636719-20.746094 74.097656-11.917968 94.84375 19.71875 3.589844 5.480469 6.378906 11.445313 8.277344 17.71875 1.082031 3.566406 4.214844 6.121094 7.925781 6.453125 30.15625 2.921875 52.238281 29.730469 49.320313 59.886719-2.710938 27.996094-26.15625 49.40625-54.28125 49.570312h-265.140625c-30.292969-.246093-54.652344-25.007812-54.40625-55.300781.21875-26.929687 19.953125-49.714843 46.570312-53.78125zm0 0"/><path d="m471.347656 109.722656h-100.570312c-17.609375.070313-31.945313-14.148437-32.019532-31.757812-.058593-13.679688 8.617188-25.875 21.5625-30.304688 3.851563-1.339844 6.351563-5.070312 6.125-9.140625-.039062-.652343-.117187-1.296875-.238281-1.9375-.085937-20.117187 16.152344-36.4960935 36.269531-36.582031 13.71875-.0585938 26.304688 7.597656 32.566407 19.804688 1.238281 2.371093 3.457031 4.085937 6.070312 4.679687 2.613281.613281 5.363281.035156 7.507813-1.582031 3.90625-2.96875 8.675781-4.585938 13.585937-4.605469 12.621094 0 22.855469 10.230469 22.855469 22.855469v.109375c-.074219.484375-.128906.988281-.15625 1.5-.21875 3.273437 1.335938 6.414062 4.070312 8.226562 14.765626 9.714844 18.859376 29.554688 9.144532 44.320313-5.925782 9.007812-15.988282 14.425781-26.773438 14.414062zm0 0"/></svg>