<svg fill="#FFF" height="512pt" viewBox="0 -21 512.00038 512" width="512pt" xmlns="http://www.w3.org/2000/svg"><path d="m503.46875 298.667969c-15.953125.378906-31.828125-2.363281-46.730469-8.066407-16.675781-6.335937-34.421875-9.394531-52.257812-9-17.84375-.398437-35.597657 2.660157-52.285157 9-4.179687 1.433594-8.351562 2.886719-13.046874 4.140626-4.550782 1.226562-7.25 5.910156-6.023438 10.460937 1.226562 4.554687 5.910156 7.25 10.460938 6.027344 5.121093-1.367188 9.632812-2.929688 14.175781-4.5 14.898437-5.703125 30.769531-8.441407 46.71875-8.0625 15.953125-.378907 31.824219 2.359375 46.726562 8.0625 16.679688 6.339843 34.421875 9.394531 52.261719 9.003906 4.710938 0 8.53125-3.820313 8.53125-8.535156 0-4.710938-3.820312-8.53125-8.53125-8.53125zm0 0"/><path d="m305.425781 298.667969c-15.941406.378906-31.804687-2.359375-46.695312-8.066407-16.664063-6.335937-34.398438-9.394531-52.222657-9-17.839843-.398437-35.589843 2.660157-52.269531 9-6.316406 2.324219-12.785156 4.207032-19.359375 5.640626-4.59375 1.054687-7.464844 5.632812-6.410156 10.226562 1.019531 4.4375 5.339844 7.292969 9.824219 6.492188 7.3125-1.570313 14.507812-3.652344 21.527343-6.230469 14.890626-5.699219 30.75-8.441407 46.6875-8.0625 15.941407-.378907 31.808594 2.359375 46.703126 8.0625 16.660156 6.335937 34.390624 9.394531 52.214843 9.003906 4.710938 0 8.53125-3.820313 8.53125-8.535156 0-4.710938-3.820312-8.53125-8.53125-8.53125zm0 0"/><path d="m8.53125 298.667969c15.941406-.378907 31.804688 2.359375 46.695312 8.0625 14.996094 5.722656 30.886719 8.746093 46.933594 8.933593h.238282c4.714843.058594 8.582031-3.714843 8.636718-8.429687.058594-4.710937-3.71875-8.578125-8.429687-8.636719-14.300781-.15625-28.460938-2.863281-41.8125-7.996094-16.675781-6.339843-34.421875-9.398437-52.257813-9-4.714844 0-8.535156 3.820313-8.535156 8.53125 0 4.714844 3.820312 8.535157 8.53125 8.535157zm0 0"/><path d="m503.46875 349.867188c-15.957031.378906-31.832031-2.359376-46.738281-8.0625-3.414063-1.1875-6.828125-2.375-10.554688-3.472657-4.542969-1.253906-9.242187 1.414063-10.496093 5.957031-1.214844 4.40625 1.257812 8.992188 5.613281 10.390626 3.414062 1.042968 6.65625 2.140624 9.875 3.25 16.6875 6.34375 34.449219 9.402343 52.300781 9.003906 4.710938 0 8.53125-3.820313 8.53125-8.53125 0-4.714844-3.820312-8.535156-8.53125-8.535156zm0 0"/><path d="m404.480469 349.867188c1.707031 0 3.351562 0 4.941406.070312 4.628906.175781 8.527344-3.429688 8.707031-8.058594 0-.089844.003906-.175781.003906-.261718.121094-4.710938-3.601562-8.628907-8.3125-8.746094-.003906 0-.003906 0-.007812 0-1.730469-.070313-3.515625-.070313-5.332031-.070313-17.847657-.398437-35.605469 2.660157-52.292969 9.003907-14.914062 5.707031-30.796875 8.445312-46.761719 8.0625-15.949219.378906-31.816406-2.359376-46.710937-8.0625-5.839844-2.125-11.785156-3.933594-17.820313-5.417969-4.542969-1.253907-9.242187 1.414062-10.492187 5.957031-1.253906 4.542969 1.417968 9.242188 5.960937 10.496094.199219.054687.402344.101562.609375.144531 5.484375 1.363281 10.898438 3.015625 16.210938 4.949219 16.671875 6.335937 34.410156 9.390625 52.242187 9 17.847657.398437 35.605469-2.660156 52.292969-9 14.910156-5.710938 30.796875-8.449219 46.761719-8.066406zm0 0"/><path d="m206.507812 349.867188c4.710938 0 8.53125-3.820313 8.53125-8.535157 0-4.710937-3.820312-8.53125-8.53125-8.53125-17.84375-.394531-35.59375 2.660157-52.277343 9.003907-14.894531 5.703124-30.761719 8.441406-46.710938 8.0625-9.691406.136718-19.367187-.78125-28.859375-2.738282-4.574218-1.128906-9.199218 1.667969-10.324218 6.246094-1.128907 4.578125 1.667968 9.199219 6.246093 10.324219.140625.035156.285157.066406.425781.09375 10.691407 2.234375 21.59375 3.285156 32.511719 3.140625 17.84375.394531 35.59375-2.660156 52.277344-9.003906 14.894531-5.703126 30.761719-8.441407 46.710937-8.0625zm0 0"/><path d="m8.53125 349.867188c10.789062-.179688 21.558594.996093 32.054688 3.5.679687.171874 1.378906.257812 2.082031.253906 4.710937-.019532 8.515625-3.855469 8.496093-8.566406-.015624-3.886719-2.65625-7.273438-6.421874-8.234376-11.855469-2.859374-24.019532-4.207031-36.207032-4.019531-4.714844 0-8.535156 3.820313-8.535156 8.53125 0 4.714844 3.820312 8.535157 8.53125 8.535157zm0 0"/><path d="m503.46875 401.066406c-15.953125.378906-31.828125-2.359375-46.730469-8.0625-16.675781-6.339844-34.421875-9.394531-52.257812-9.003906-17.84375-.394531-35.597657 2.660156-52.285157 9.003906-4.179687 1.433594-8.351562 2.882813-13.046874 4.136719-4.550782 1.226563-7.25 5.910156-6.023438 10.464844 1.226562 4.550781 5.910156 7.25 10.460938 6.023437 5.121093-1.363281 9.632812-2.925781 14.175781-4.496094 14.898437-5.707031 30.769531-8.445312 46.71875-8.066406 15.953125-.378906 31.824219 2.359375 46.726562 8.066406 16.679688 6.335938 34.421875 9.394532 52.261719 9 4.710938 0 8.53125-3.820312 8.53125-8.53125 0-4.714843-3.820312-8.535156-8.53125-8.535156zm0 0"/><path d="m305.425781 401.066406c-15.941406.378906-31.804687-2.359375-46.695312-8.0625-16.664063-6.339844-34.398438-9.394531-52.222657-9.003906-17.839843-.394531-35.589843 2.660156-52.269531 9.003906-3.703125 1.269532-7.40625 2.558594-11.457031 3.703125-4.542969 1.261719-7.199219 5.96875-5.9375 10.507813 1.265625 4.539062 5.96875 7.199218 10.507812 5.933594.03125-.007813.058594-.015626.085938-.023438 4.378906-1.238281 8.371094-2.621094 12.367188-3.992188 14.894531-5.703124 30.757812-8.441406 46.703124-8.066406 15.941407-.378906 31.808594 2.359375 46.703126 8.066406 16.660156 6.335938 34.390624 9.390626 52.214843 9 4.710938 0 8.53125-3.820312 8.53125-8.53125 0-4.714843-3.820312-8.535156-8.53125-8.535156zm0 0"/><path d="m8.53125 401.066406c16.554688-.257812 33.015625 2.496094 48.582031 8.125 17.257813 6.183594 35.488281 9.210938 53.820313 8.941406 4.710937 0 8.53125-3.820312 8.53125-8.53125 0-4.714843-3.820313-8.535156-8.53125-8.535156-16.554688.261719-33.015625-2.492187-48.582032-8.125-17.257812-6.179687-35.488281-9.210937-53.820312-8.941406-4.710938 0-8.53125 3.820312-8.53125 8.535156 0 4.710938 3.820312 8.53125 8.53125 8.53125zm0 0"/><path d="m503.46875 452.265625c-15.957031.378906-31.832031-2.359375-46.738281-8.0625-12.175781-4.625-24.953125-7.480469-37.941407-8.480469-4.644531-.421875-8.753906 3.003906-9.175781 7.652344-.003906.0625-.007812.125-.011719.1875-.371093 4.699219 3.140626 8.804688 7.839844 9.171875.003906.003906.007813.003906.007813.003906 11.539062.894531 22.886719 3.453125 33.691406 7.59375 16.699219 6.34375 34.46875 9.402344 52.328125 9.003907 4.710938 0 8.53125-3.824219 8.53125-8.535157 0-4.714843-3.820312-8.535156-8.53125-8.535156zm0 0"/><path d="m275.019531 449.167969c-4.585937-1.078125-9.179687 1.765625-10.261719 6.355469-1.078124 4.585937 1.765626 9.183593 6.355469 10.261718 11.257813 2.527344 22.773438 3.71875 34.3125 3.550782 17.84375.394531 35.597657-2.664063 52.285157-9.003907 8.832031-3.335937 18.011718-5.667969 27.363281-6.945312 4.679687-.59375 7.988281-4.867188 7.394531-9.546875-.59375-4.675782-4.867188-7.988282-9.542969-7.394532-10.515625 1.417969-20.839843 4.023438-30.773437 7.757813-14.902344 5.703125-30.773438 8.441406-46.726563 8.0625-10.222656.164063-20.425781-.875-30.40625-3.097656zm0 0"/><path d="m247.234375 449.050781c1.070313-4.578125-1.765625-9.15625-6.339844-10.242187-11.277343-2.558594-22.824219-3.769532-34.386719-3.609375-17.84375-.394531-35.59375 2.664062-52.277343 9.003906-14.894531 5.707031-30.761719 8.445313-46.710938 8.0625-7.007812.050781-14.011719-.390625-20.957031-1.320313-4.65625-.742187-9.027344 2.429688-9.769531 7.085938-.738281 4.652344 2.433593 9.027344 7.085937 9.769531.097656.015625.195313.027344.292969.039063 7.738281 1.042968 15.539063 1.542968 23.347656 1.496094 17.84375.394531 35.59375-2.664063 52.277344-9.003907 14.894531-5.707031 30.761719-8.445312 46.710937-8.066406 10.253907-.164063 20.496094.882813 30.507813 3.117187 4.566406 1.054688 9.132813-1.773437 10.21875-6.332031zm0 0"/><path d="m48.582031 458.097656c.847657.265625 1.730469.398438 2.617188.398438 4.714843.003906 8.539062-3.8125 8.542969-8.523438.003906-3.710937-2.390626-6.996094-5.921876-8.132812-14.613281-4.75-29.925781-6.992188-45.285156-6.640625-4.714844 0-8.535156 3.824219-8.535156 8.535156 0 4.714844 3.820312 8.535156 8.535156 8.535156 13.582032-.359375 27.125 1.613281 40.046875 5.828125zm0 0"/><path d="m128 256h290.132812c37.703126-.164062 68.132813-30.859375 67.96875-68.5625-.140624-32.261719-22.84375-60.019531-54.433593-66.554688-16.878907-27.210937-49.140625-40.746093-80.382813-33.722656-20.167968-50.277344-77.269531-74.6875-127.546875-54.523437-2.46875.992187-4.898437 2.082031-7.28125 3.273437-23.65625-23.074218-55.410156-35.9648435-88.457031-35.910156-70.691406 0-128 57.308594-128 128s57.308594 128 128 128zm0 0"/></svg>