<svg fill="#FFF" height="511pt" viewBox="0 -6 511.99945 511" width="511pt" xmlns="http://www.w3.org/2000/svg"><path d="m379.980469 61.871094c-.003907-4.058594-2.601563-7.660156-6.449219-8.941406l-26.554688-8.882813c-4.945312-1.644531-8.828124-5.523437-10.476562-10.464844l-8.863281-26.59375c-1.628907-4.949219-6.957031-7.640625-11.90625-6.015625-2.84375.9375-5.078125 3.167969-6.011719 6.015625l-8.863281 26.601563c-1.652344 4.9375-5.523438 8.8125-10.460938 10.46875l-26.589843 8.871094c-4.949219 1.628906-7.640626 6.957031-6.015626 11.902343.9375 2.847657 3.167969 5.078125 6.015626 6.015625l25.921874 8.636719c5.164063 1.730469 9.148438 5.890625 10.644532 11.128906l9.214844 32.230469c1.441406 5.003906 6.664062 7.894531 11.671874 6.453125 3.117188-.894531 5.554688-3.335937 6.453126-6.453125l9.210937-32.230469c1.5-5.238281 5.484375-9.398437 10.648437-11.128906l25.921876-8.636719c3.878906-1.273437 6.496093-4.898437 6.488281-8.976562zm0 0"/><path d="m370.550781 195.660156h18.859375v18.863282h-18.859375zm0 0"/><path d="m398.839844 110.792969h18.859375v18.859375h-18.859375zm0 0"/><path d="m332.832031 148.511719h18.859375v18.859375h-18.859375zm0 0"/><path d="m.0664062 160.574219c.6289058-64.996094 41.7187498-122.707031 102.9296878-144.570313-27.089844 92.335938 25.808594 189.148438 118.144531 216.234375 22.847656 6.703125 46.824219 8.652344 70.453125 5.726563-6.066406 10.839844-13.414062 20.910156-21.886719 29.996094-46.515625-11.859376-95.28125 8.359374-119.761719 49.648437-84.339843-2.925781-150.914062-72.652344-149.9335932-157.035156zm389.3437498 339.789062c-.714844 0-1.414062-.058593-2.121094-.105469l-2.261718-.121093c-.535156-.042969-1.074219-.023438-1.605469.046875-1.140625.085937-2.28125.179687-3.441406.179687h-311.1875c-31.246094-.230469-56.394531-25.746093-56.164063-56.992187.203125-27.910156 20.730469-51.503906 48.347656-55.5625 2.914063-.410156 5.46875-2.152344 6.910157-4.714844 13.636719-24.707031 41.636719-37.804688 69.339843-32.441406-1.226562 5.671875-1.996093 11.433594-2.300781 17.230468-.261719 5.199219 3.742188 9.628907 8.945313 9.890626h.03125.453125c5.039062.007812 9.191406-3.953126 9.429687-8.984376 2.359375-49.421874 44.335938-87.570312 93.753906-85.210937 25.914063 1.234375 50.023438 13.648437 66.082032 34.023437 3.226562 4.089844 9.15625 4.792969 13.246094 1.570313 4.089843-3.222656 4.792968-9.152344 1.570312-13.242187-5.902344-7.394532-12.738281-13.988282-20.332031-19.625 22.304687-20.101563 51.28125-31.191407 81.304687-31.121094 67.703125 0 122.589844 54.886718 122.589844 122.589844 0 67.703124-54.886719 122.589843-122.589844 122.589843zm0 0"/></svg>