<svg fill="#FFF" height="511pt" viewBox="0 -50 511.99435 511" width="511pt" xmlns="http://www.w3.org/2000/svg"><path d="m269.863281 69.535156 39.351563-69.039062 15.339844 8.746094-39.351563 69.039062zm0 0"/><path d="m97.355469 10.492188 15.246093-8.914063 40.105469 68.601563-15.246093 8.914062zm0 0"/><path d="m0 181.300781 79.464844-.429687.09375 17.660156-79.464844.425781zm0 0"/><path d="m99.339844 368.699219 39.351562-69.039063 15.339844 8.746094-39.351562 69.039062zm0 0"/><path d="m205.011719 22.421875h17.660156v35.316406h-17.660156zm0 0"/><path d="m64.0625 113.796875 8.847656-15.285156 30.566406 17.691406-8.84375 15.285156zm0 0"/><path d="m63.90625 266.25 30.609375-17.625 8.808594 15.304688-30.605469 17.625zm0 0"/><path d="m324.039062 116.445312 30.609376-17.625 8.8125 15.304688-30.609376 17.625zm0 0"/><path d="m225.089844 249.992188c1.578125-45.839844 32.425781-85.476563 76.472656-98.261719-1.683594-4.101563-3.640625-8.085938-5.863281-11.921875-26.929688-46.390625-86.367188-62.164063-132.757813-35.234375-46.390625 26.929687-62.164062 86.367187-35.234375 132.757812 12.132813 20.902344 31.625 36.527344 54.664063 43.828125 10.90625-14.324218 25.75-25.15625 42.71875-31.167968zm-86.476563-77.964844c4.652344-20.242188 17.453125-37.667969 35.378907-48.15625 11.535156-6.554688 24.542968-10.070313 37.808593-10.214844v17.660156h-.070312c-26.761719.03125-49.949219 18.554688-55.890625 44.648438zm33.15625 80.199218c-10.222656-6.460937-18.734375-15.285156-24.820312-25.730468l15.25-8.890625c4.628906 8.003906 11.144531 14.753906 18.972656 19.671875zm0 0"/><path d="m436.945312 262.292969h-17.660156v-8.832031c0-48.761719-39.53125-88.292969-88.292968-88.292969-48.765626 0-88.296876 39.53125-88.296876 88.292969l.355469 9.714843-6.730469 1.816407c-39.980468 10.839843-63.605468 52.039062-52.765624 92.019531 8.863281 32.683593 38.523437 55.375 72.386718 55.378906h181.003906c41.449219 0 75.050782-33.601563 75.050782-75.050781 0-41.449219-33.601563-75.046875-75.050782-75.046875zm-39.734374 132.441406h-17.660157v-17.660156h17.660157zm52.976562 0h-35.316406v-17.660156h35.316406zm0 0"/></svg>