<svg fill="#FFF" height="511pt" viewBox="-16 0 511 511.99979" width="511pt" xmlns="http://www.w3.org/2000/svg"><path d="m266.785156 338.792969c-5.382812-2.6875-11.925781-.507813-14.613281 4.871093-.003906.003907-.003906.007813-.003906.007813l-10.894531 21.785156c-2.730469 5.359375-.597657 11.917969 4.761718 14.648438 5.363282 2.730469 11.921875.597656 14.648438-4.761719.027344-.050781.050781-.097656.078125-.148438l10.890625-21.785156c2.691406-5.378906.511718-11.921875-4.867188-14.613281zm0 0"/><path d="m353.917969 338.792969c-5.378907-2.6875-11.921875-.507813-14.613281 4.871093 0 .003907 0 .007813-.003907.007813l-10.890625 21.785156c-2.730468 5.359375-.597656 11.917969 4.761719 14.648438s11.917969.597656 14.648437-4.761719c.027344-.050781.050782-.097656.074219-.148438l10.894531-21.785156c2.691407-5.378906.511719-11.921875-4.867187-14.613281 0 0-.003906-.003906-.003906-.003906zm0 0"/><path d="m425.28125 381.21875c4.148438.023438 7.949219-2.3125 9.804688-6.023438l10.890624-21.785156c2.730469-5.359375.597657-11.917968-4.761718-14.648437s-11.917969-.597657-14.648438 4.761719c-.023437.050781-.050781.101562-.074218.148437l-10.890626 21.785156c-2.691406 5.382813-.507812 11.921875 4.871094 14.613281 1.496094.746094 3.140625 1.140626 4.808594 1.148438zm0 0"/><path d="m173.613281 375.195312 10.890625-21.785156c2.734375-5.359375.601563-11.917968-4.757812-14.648437s-11.917969-.601563-14.648438 4.761719c-.027344.046874-.054687.097656-.078125.148437l-10.890625 21.785156c-2.730468 5.359375-.601562 11.917969 4.757813 14.648438s11.917969.601562 14.652343-4.757813c.023438-.050781.050782-.101562.074219-.152344zm0 0"/><path d="m76.742188 381.21875c4.125 0 7.902343-2.332031 9.746093-6.023438l10.890625-21.785156c2.734375-5.359375.601563-11.917968-4.757812-14.648437s-11.917969-.601563-14.652344 4.761719c-.023438.046874-.050781.097656-.074219.148437l-10.890625 21.785156c-2.691406 5.382813-.507812 11.921875 4.875 14.613281 1.507813.753907 3.171875 1.148438 4.863282 1.148438zm0 0"/><path d="m219.488281 409.023438-10.890625 21.785156c-2.730468 5.359375-.597656 11.917968 4.761719 14.648437 5.359375 2.734375 11.917969.601563 14.648437-4.757812.027344-.050781.050782-.101563.074219-.152344l10.894531-21.785156c2.730469-5.359375.597657-11.917969-4.761718-14.648438s-11.917969-.601562-14.648438 4.761719c-.027344.046875-.050781.097656-.078125.148438zm0 0"/><path d="m306.625 409.023438-10.890625 21.785156c-2.730469 5.359375-.597656 11.917968 4.761719 14.648437s11.917968.597657 14.648437-4.761719c.023438-.046874.050781-.097656.074219-.148437l10.890625-21.785156c2.730469-5.359375.601563-11.917969-4.761719-14.648438-5.359375-2.730469-11.917968-.597656-14.648437 4.761719-.023438.050781-.050781.101562-.074219.148438zm0 0"/><path d="m392.605469 446.570312c4.148437.023438 7.949219-2.3125 9.804687-6.023437l10.890625-21.785156c2.730469-5.359375.597657-11.917969-4.761719-14.648438-5.359374-2.730469-11.917968-.597656-14.648437 4.761719-.027344.050781-.050781.101562-.074219.148438l-10.894531 21.785156c-2.6875 5.382812-.503906 11.921875 4.875 14.613281 1.496094.746094 3.140625 1.140625 4.808594 1.148437zm0 0"/><path d="m140.9375 440.546875 10.890625-21.785156c2.730469-5.359375.601563-11.917969-4.757813-14.648438-5.363281-2.730469-11.921874-.597656-14.652343 4.761719-.023438.046875-.050781.097656-.074219.148438l-10.890625 21.785156c-2.734375 5.359375-.601563 11.917968 4.757813 14.648437 5.359374 2.734375 11.917968.601563 14.648437-4.757812.027344-.050781.054687-.101563.078125-.152344zm0 0"/><path d="m59.835938 404.144531c-5.378907-2.6875-11.921876-.507812-14.613282 4.871094 0 .003906-.003906.007813-.003906.007813l-10.890625 21.785156c-2.730469 5.359375-.601563 11.917968 4.761719 14.648437 5.359375 2.730469 11.917968.601563 14.648437-4.757812.023438-.050781.050781-.101563.074219-.152344l10.890625-21.785156c2.695313-5.378907.515625-11.921875-4.863281-14.613281 0 0-.003906-.003907-.003906-.003907zm0 0"/><path d="m180.800781 510.832031c5.382813 2.683594 11.921875.5 14.605469-4.878906l10.894531-21.785156c2.730469-5.359375.597657-11.917969-4.761719-14.648438-5.359374-2.730469-11.917968-.601562-14.648437 4.761719-.027344.046875-.050781.097656-.078125.148438l-10.890625 21.785156c-2.691406 5.382812-.507813 11.921875 4.871094 14.613281.003906 0 .007812.003906.007812.003906zm0 0"/><path d="m267.9375 510.832031c5.378906 2.683594 11.917969.5 14.605469-4.878906l10.894531-21.785156c2.730469-5.359375.597656-11.917969-4.761719-14.648438-5.363281-2.730469-11.921875-.597656-14.652343 4.761719-.023438.050781-.050782.101562-.074219.148438l-10.890625 21.785156c-2.691406 5.382812-.507813 11.921875 4.871094 14.613281.003906 0 .003906.003906.007812.003906zm0 0"/><path d="m355.074219 510.832031c5.378906 2.683594 11.917969.5 14.605469-4.878906l10.890624-21.785156c2.730469-5.359375.597657-11.917969-4.761718-14.648438s-11.917969-.597656-14.648438 4.761719c-.023437.050781-.050781.101562-.074218.148438l-10.890626 21.785156c-2.691406 5.382812-.511718 11.921875 4.871094 14.613281 0 0 .003906.003906.007813.003906zm0 0"/><path d="m114.296875 469.496094c-5.382813-2.6875-11.925781-.507813-14.613281 4.871094-.003906.003906-.003906.007812-.003906.007812l-10.894532 21.785156c-2.730468 5.359375-.597656 11.917969 4.761719 14.648438 5.359375 2.734375 11.917969.601562 14.648437-4.757813.027344-.050781.050782-.101562.078126-.152343l10.890624-21.785157c2.695313-5.378906.515626-11.921875-4.863281-14.613281-.003906 0-.003906-.003906-.003906-.003906zm0 0"/><path d="m6.53125 510.832031c5.378906 2.683594 11.917969.5 14.605469-4.878906l10.890625-21.785156c2.730468-5.359375.601562-11.917969-4.757813-14.648438-5.363281-2.730469-11.921875-.597656-14.652343 4.761719-.023438.050781-.050782.101562-.074219.148438l-10.890625 21.785156c-2.691406 5.382812-.507813 11.921875 4.871094 14.613281 0 0 .003906.003906.007812.003906zm0 0"/><path d="m398.0625 130.703125h-16.335938v-10.890625c0-66.171875-53.640624-119.8125-119.8125-119.8125-66.167968 0-119.8125 53.640625-119.8125 119.8125v10.890625h-16.335937c-45.117187 0-81.691406 36.574219-81.691406 81.691406 0 45.113281 36.574219 81.6875 81.691406 81.6875h272.296875c45.117188 0 81.691406-36.574219 81.691406-81.6875 0-45.117187-36.574218-81.691406-81.691406-81.691406zm-212.390625-10.890625h-21.785156c-.027344-44.714844 30.222656-83.777344 73.519531-94.9375l5.449219 21.089844c-33.675781 8.691406-57.195313 39.070312-57.183594 73.847656zm174.269531 152.484375h-21.785156v-21.78125h21.785156zm65.351563 0h-43.566407v-21.78125h43.566407zm0 0"/></svg>