<svg fill="#FFF" height="512pt" viewBox="-13 0 512 512.01207" width="512pt" xmlns="http://www.w3.org/2000/svg"><path d="m348.859375 53.25c-12.277344-.003906-24.40625 2.683594-35.53125 7.871094-15.320313-46.609375-65.523437-71.976563-112.132813-56.65625-36.429687 11.972656-61.066406 45.972656-61.097656 84.320312v20.09375c-37.964844 9.960938-60.664062 48.8125-50.703125 86.777344 8.171875 31.148438 36.265625 52.910156 68.46875 53.03125h257.625c39.25-.0625 71.015625-31.933594 70.953125-71.179688-.054687-34.4375-24.792968-63.882812-58.703125-69.875-12.324219-32.84375-43.796875-54.542968-78.878906-54.382812zm0 0"/><path d="m46.820312 346.40625c0 19.625 15.910157 35.535156 35.535157 35.535156s35.535156-15.910156 35.535156-35.535156-15.910156-35.535156-35.535156-35.535156-35.535157 15.910156-35.535157 35.535156zm0 0"/><path d="m.0078125 429.550781 44.4140625-53.296875 13.65625 11.378906-44.417969 53.296876zm0 0"/><path d="m103.632812 305.171875 29.609376-35.535156 13.652343 11.378906-29.605469 35.535156zm0 0"/><path d="m32.5625 485.789062 29.609375-35.535156 13.65625 11.378906-29.609375 35.535157zm0 0"/><path d="m201.355469 482.863281 29.617187-35.53125 13.65625 11.382813-29.617187 35.53125zm0 0"/><path d="m79.964844 429.558594 133.257812-159.902344 13.652344 11.378906-133.257812 159.902344zm0 0"/><path d="m248.738281 429.558594 133.277344-159.878906 13.652344 11.378906-133.277344 159.882812zm0 0"/><path d="m224.492188 417.472656c0-19.625-15.910157-35.53125-35.535157-35.53125s-35.535156 15.90625-35.535156 35.53125 15.910156 35.535156 35.535156 35.535156 35.535157-15.90625 35.535157-35.535156zm0 0"/><path d="m106.597656 500.628906 44.425782-53.289062 13.652343 11.382812-44.421875 53.289063zm0 0"/><path d="m210.363281 376.132812 91.796875-106.605468 13.460938 11.589844-91.792969 106.609374zm0 0"/><path d="m464.347656 337.523438c0-19.625-15.910156-35.535157-35.535156-35.535157s-35.535156 15.910157-35.535156 35.535157 15.910156 35.535156 35.535156 35.535156 35.535156-15.910156 35.535156-35.535156zm0 0"/><path d="m317.769531 497.425781c19.625 0 35.53125-15.910156 35.53125-35.535156s-15.90625-35.53125-35.53125-35.53125-35.535156 15.90625-35.535156 35.53125 15.910156 35.535156 35.535156 35.535156zm0 0"/><path d="m346.457031 420.683594 44.421875-53.292969 13.65625 11.382813-44.425781 53.292968zm0 0"/><path d="m449.945312 296.542969 20.722657-26.648438 14.023437 10.90625-20.722656 26.648438zm0 0"/></svg>