<svg fill="#FFF" height="512pt" viewBox="-42 0 512 512" width="512pt" xmlns="http://www.w3.org/2000/svg"><path d="m365.492188 250.671875h-303.140626c-34.636718-.199219-62.550781-28.441406-62.351562-63.082031.1875-32.15625 24.667969-58.964844 56.675781-62.058594 4.246094-.386719 7.828125-3.304688 9.0625-7.382812 12.539063-41.394532 56.261719-64.785157 97.65625-52.246094 7.152344 2.164062 13.960938 5.34375 20.214844 9.441406 4.824219 3.167969 11.304687 1.824219 14.472656-3 .773438-1.179688 1.300781-2.5 1.550781-3.886719 8.386719-45.417969 52-75.4375 97.417969-67.050781 39.578125 7.304688 68.335938 41.769531 68.441407 82.019531v32.183594c0 5.195313 3.816406 9.605469 8.957031 10.347656 34.242187 5.230469 57.761719 37.230469 52.53125 71.472657-4.652344 30.433593-30.703125 52.992187-61.488281 53.242187zm0 0"/><path d="m260.960938 459.734375h-16.578126l11.71875-11.71875-14.78125-14.777344-11.71875 11.714844v-16.578125h-20.90625v16.578125l-11.71875-11.714844-14.777343 14.777344 11.714843 11.71875h-16.578124v20.90625h16.578124l-11.714843 11.71875 14.777343 14.78125 11.71875-11.71875v16.578125h20.90625v-16.578125l11.71875 11.71875 14.78125-14.78125-11.71875-11.71875h16.578126zm0 0"/><path d="m396.851562 344.75h-16.578124l11.71875-11.714844-14.78125-14.78125-11.71875 11.714844v-16.578125h-20.90625v16.578125l-11.71875-11.714844-14.78125 14.78125 11.71875 11.714844h-16.578126v20.90625h16.578126l-11.71875 11.71875 14.78125 14.78125 11.71875-11.71875v16.578125h20.90625v-16.578125l11.71875 11.71875 14.78125-14.78125-11.71875-11.71875h16.578124zm0 0"/><path d="m135.523438 365.65625h-16.578126l11.71875-11.714844-14.78125-14.78125-11.71875 11.714844v-16.578125h-20.90625v16.578125l-11.714843-11.714844-14.78125 14.78125 11.71875 11.714844h-16.582031v20.90625h16.582031l-11.71875 11.71875 14.78125 14.78125 11.714843-11.71875v16.578125h20.90625v-16.578125l11.71875 11.71875 14.78125-14.78125-11.71875-11.71875h16.578126zm0 0"/></svg>