<svg fill="#FFF" height="512.00003pt" viewBox="0 0 512.00003 512.00003" width="512.00003pt" xmlns="http://www.w3.org/2000/svg"><path d="m256 0c-141.382812 0-256 114.617188-256 256s114.617188 256 256 256 256-114.617188 256-256c-.160156-141.316406-114.683594-255.839844-256-256zm173.714844 237.714844c0 5.050781-4.09375 9.140625-9.144532 9.140625h-109.714843c-5.046875 0-9.140625-4.089844-9.140625-9.140625 0-5.050782 4.09375-9.144532 9.140625-9.144532h109.714843c5.050782 0 9.144532 4.09375 9.144532 9.144532zm-228.570313-91.429688h91.425781c10.101563 0 18.289063-8.183594 18.289063-18.28125 0-.089844 0-.179687-.003906-.269531-.136719-10.097656-8.433594-18.171875-18.53125-18.035156-7.660157.101562-14.449219 4.976562-16.996094 12.203125-1.679687 4.761718-6.90625 7.257812-11.667969 5.578125-4.761718-1.683594-7.257812-6.90625-5.574218-11.667969 6.714843-19.046875 27.601562-29.046875 46.648437-22.328125 14.453125 5.09375 24.199219 18.660156 24.410156 33.984375.292969 20.195312-15.84375 36.804688-36.039062 37.097656-.175781.003906-.355469.003906-.535157.003906h-91.425781c-5.050781 0-9.144531-4.09375-9.144531-9.140624 0-5.050782 4.09375-9.144532 9.144531-9.144532zm-64 0h27.425781c5.050782 0 9.144532 4.09375 9.144532 9.144532 0 5.046874-4.09375 9.140624-9.144532 9.140624h-27.425781c-5.050781 0-9.144531-4.09375-9.144531-9.140624 0-5.050782 4.09375-9.144532 9.144531-9.144532zm-73.144531 0h36.570312c5.050782 0 9.144532 4.09375 9.144532 9.144532 0 5.046874-4.09375 9.140624-9.144532 9.140624h-36.570312c-5.050781 0-9.144531-4.09375-9.144531-9.140624 0-5.050782 4.09375-9.144532 9.144531-9.144532zm0 36.570313h228.570312c30.296876-.007813 54.851563-24.574219 54.839844-54.871094-.007812-30.296875-24.574218-54.851563-54.871094-54.839844-21.183593.003907-40.472656 12.207031-49.550781 31.347657-2.273437 4.511718-7.769531 6.324218-12.28125 4.050781-4.359375-2.199219-6.222656-7.4375-4.230469-11.894531 17.316407-36.496094 60.9375-52.046876 97.433594-34.730469 36.496094 17.3125 52.046875 60.9375 34.734375 97.433593-12.109375 25.519532-37.828125 41.785157-66.074219 41.789063h-228.570312c-5.050781 0-9.144531-4.089844-9.144531-9.140625s4.09375-9.144531 9.144531-9.144531zm219.429688 54.859375c0 5.050781-4.09375 9.140625-9.144532 9.140625h-27.429687c-5.046875 0-9.140625-4.089844-9.140625-9.140625 0-5.050782 4.09375-9.144532 9.140625-9.144532h27.429687c5.050782 0 9.144532 4.09375 9.144532 9.144532zm-64 0c0 5.050781-4.09375 9.140625-9.144532 9.140625h-82.285156c-5.050781 0-9.144531-4.089844-9.144531-9.140625 0-5.050782 4.09375-9.144532 9.144531-9.144532h82.285156c5.050782 0 9.144532 4.09375 9.144532 9.144532zm-155.429688-9.144532h27.429688c5.046874 0 9.140624 4.09375 9.140624 9.144532 0 5.050781-4.09375 9.140625-9.140624 9.140625h-27.429688c-5.050781 0-9.144531-4.089844-9.144531-9.140625 0-5.050782 4.09375-9.144532 9.144531-9.144532zm0 45.714844h18.285156c5.050782 0 9.144532 4.09375 9.144532 9.144532 0 5.046874-4.09375 9.140624-9.144532 9.140624h-18.285156c-5.050781 0-9.144531-4.09375-9.144531-9.140624 0-5.050782 4.09375-9.144532 9.144531-9.144532zm64 54.859375h-64c-5.050781 0-9.144531-4.09375-9.144531-9.144531s4.09375-9.144531 9.144531-9.144531h64c5.050781 0 9.140625 4.09375 9.140625 9.144531.003906 5.050781-4.089844 9.144531-9.140625 9.144531zm18.285156-36.574219h-27.429687c-5.046875 0-9.140625-4.09375-9.140625-9.140624 0-5.050782 4.09375-9.144532 9.140625-9.144532h27.429687c5.050782 0 9.144532 4.09375 9.144532 9.144532 0 5.046874-4.09375 9.140624-9.144532 9.140624zm45.714844 36.574219h-27.429688c-5.046874 0-9.140624-4.09375-9.140624-9.144531s4.09375-9.144531 9.140624-9.144531h27.429688c5.050781 0 9.140625 4.09375 9.140625 9.144531.003906 5.050781-4.089844 9.144531-9.140625 9.144531zm64 0h-27.429688c-5.046874 0-9.140624-4.09375-9.140624-9.144531s4.09375-9.144531 9.140624-9.144531h27.429688c5.050781 0 9.144531 4.09375 9.144531 9.144531s-4.09375 9.144531-9.144531 9.144531zm27.429688-9.144531c0-5.050781 4.09375-9.144531 9.140624-9.144531h91.429688c20.199219 0 36.574219 16.371093 36.574219 36.570312 0 .175781 0 .355469-.003907.53125-.417968 19.730469-16.3125 35.625-36.039062 36.042969h-.53125c-15.503906 0-29.320312-9.769531-34.488281-24.386719-1.679688-4.757812.816406-9.984375 5.578125-11.664062 4.761718-1.683594 9.984375.816406 11.667968 5.578125 2.445313 7.523437 9.601563 12.503906 17.507813 12.1875 9.816406-.320313 17.703125-8.203125 18.019531-18.023438.148438-10.097656-7.921875-18.402344-18.019531-18.546875-.089844-.003906-.175781-.003906-.265625-.003906h-91.429688c-5.046874.003906-9.140624-4.089844-9.140624-9.140625zm100.570312 100.570312c-28.230469-.082031-53.914062-16.324218-66.09375-41.789062-2.273438-4.511719-.460938-10.007812 4.046875-12.28125 4.511719-2.273438 10.007813-.460938 12.28125 4.046875.0625.128906.125.257813.183594.386719 12.980469 27.375 45.699219 39.042968 73.070312 26.0625 27.375-12.984375 39.042969-45.699219 26.0625-73.074219-9.078125-19.140625-28.367187-31.34375-49.550781-31.351563h-201.144531c-5.046875 0-9.140625-4.09375-9.140625-9.140624 0-5.050782 4.09375-9.144532 9.140625-9.144532h201.144531c40.394531 0 73.144531 32.746094 73.144531 73.144532 0 40.394531-32.75 73.140624-73.144531 73.140624zm0 0"/></svg>